<svg height="100" width="100" xmlns="http://www.w3.org/2000/svg"><svg fill="#1c3ed3" transform="matrix(.69 0 0 .69 15.5 15.5)" viewBox="0 0 164 164" xmlns="http://www.w3.org/2000/svg"><path d="m56.3 145.6h22.6c.5 0 .9-.4.9-.9s-.4-.9-.9-.9h-22.6c-.5 0-.9.4-.9.9s.4.9.9.9zm26.2 0h3.7c.5 0 .9-.4.9-.9s-.4-.9-.9-.9h-3.7c-.5 0-.9.4-.9.9s.4.9.9.9zm6.9 0h2.5c.5 0 .9-.4.9-.9s-.4-.9-.9-.9h-2.5c-.5 0-.9.4-.9.9s.4.9.9.9zm-5.2 3.7c0 .5.4.9.9.9h22.6c.5 0 .9-.4.9-.9s-.4-.9-.9-.9h-22.6c-.5-.1-.9.4-.9.9zm-7.4 0c0 .5.4.9.9.9h3.7c.5 0 .9-.4.9-.9s-.4-.9-.9-.9h-3.7c-.5-.1-.9.4-.9.9zm-2.2-1h-2.5c-.5 0-.9.4-.9.9s.4.9.9.9h2.5c.5 0 .9-.4.9-.9s-.4-.9-.9-.9zm-29.7-66.2-3.3 1.5c-.5.2-.7.8-.5 1.2.2.3.5.6.9.6.1 0 .3 0 .4-.1l3.3-1.5c.5-.2.7-.8.5-1.2-.3-.5-.9-.7-1.3-.5zm-20 9-3.3 1.5c-.5.2-.7.8-.5 1.2.2.3.5.6.9.6.1 0 .3 0 .4-.1l3.3-1.5c.5-.2.7-.8.5-1.2-.3-.5-.9-.8-1.3-.5zm13.3-6-3.3 1.5c-.5.2-.7.8-.5 1.2.2.3.5.6.9.6.1 0 .3 0 .4-.1l3.3-1.5c.5-.2.7-.8.5-1.2-.3-.5-.8-.7-1.3-.5zm-20 8.9-3.3 1.5c-.5.2-.7.8-.5 1.2.2.3.5.6.9.6.1 0 .3 0 .4-.1l3.3-1.5c.5-.2.7-.8.5-1.2-.3-.5-.8-.7-1.3-.5zm-13.7 7.2c-.2-.5-.8-.7-1.2-.5l-1.7.8c-.4.1-.6.5-.6.8s.2.7.6.9l1.7.8c.1.1.3.1.4.1.4 0 .7-.2.9-.6s0-.9-.3-1.1c.2-.3.4-.8.2-1.2zm72.1 35.5c.1.1.3.1.4.1.4 0 .7-.2.9-.6.2-.5 0-1-.5-1.2l-3.3-1.5c-.5-.2-1 0-1.2.5s0 1 .5 1.2zm-20-8.9c.1.1.3.1.4.1.4 0 .7-.2.9-.6.2-.5 0-1-.5-1.2l-3.3-1.5c-.5-.2-1 0-1.2.5s0 1 .5 1.2zm-13.3-6c.1.1.3.1.4.1.4 0 .7-.2.9-.6.2-.5 0-1-.5-1.2l-3.3-1.5c-.5-.2-1 0-1.2.5s0 1 .5 1.2zm20 9c.1.1.3.1.4.1.4 0 .7-.2.9-.6.2-.5 0-1-.5-1.2l-3.3-1.5c-.5-.2-1 0-1.2.5s0 1 .5 1.2zm6.6 3c.1.1.3.1.4.1.4 0 .7-.2.9-.6.2-.5 0-1-.5-1.2l-3.3-1.5c-.5-.2-1 0-1.2.5s0 1 .5 1.2zm-33.3-15c.1.1.3.1.4.1.4 0 .7-.2.9-.6.2-.5 0-1-.5-1.2l-3.3-1.5c-.5-.2-1 0-1.2.5s0 1 .5 1.2zm-10-4.4 3.3 1.5c.1.1.3.1.4.1.4 0 .7-.2.9-.6.2-.5 0-1-.5-1.2l-3.3-1.5c-.5-.2-1 0-1.2.5-.3.4-.1 1 .4 1.2zm-7.2-4.2c-.2.5 0 1 .5 1.2l3.3 1.5c.1.1.3.1.4.1.4 0 .7-.2.9-.6.2-.5 0-1-.5-1.2l-3.3-1.5c-.5-.2-1 0-1.3.5zm30.5 14.6c.1.1.3.1.4.1.4 0 .7-.2.9-.6.2-.5 0-1-.5-1.2l-3.3-1.5c-.5-.2-1 0-1.2.5s0 1 .5 1.2zm-37.1-17.6c-.2.5 0 1 .5 1.2l3.3 1.5c.1.1.3.1.4.1.4 0 .7-.2.9-.6.2-.5 0-1-.5-1.2l-3.3-1.5c-.6-.2-1.1 0-1.3.5z"/><path d="m156.7 103.7-3.3 1.5s-.1 0-.1.1c-.3.1-.6.3-.7.7-3.6 12.1-10.3 22.7-19 31.3h-49v-.2c-.2-.5-.8-.7-1.2-.5l-1.3.6-1.3-.6c-.5-.2-1 0-1.2.5v.2h-49c-8.7-8.5-15.3-19.1-18.9-31.2-.1-.3-.4-.6-.7-.7l-.1-.1-3.3-1.5c-.5-.2-1 0-1.2.5s0 1 .5 1.2l3.2 1.4c9.3 30.4 37.6 53.4 72.2 53.4 34.5 0 62.9-23 72.2-53.4l3.2-1.4c.5-.2.7-.8.5-1.2-.5-.6-1.1-.8-1.5-.6zm-74.7 54.7c-18.7 0-36.3-7.3-49.6-19.4h99.2c-13.3 12.2-30.9 19.4-49.6 19.4z"/><path d="m113.7 124.9c.1 0 .3 0 .4-.1l3.3-1.5c.5-.2.7-.8.5-1.2-.2-.5-.8-.7-1.2-.5l-3.3 1.5c-.5.2-.7.8-.5 1.2.1.4.4.6.8.6zm6.7-3c.1 0 .3 0 .4-.1l3.3-1.5c.5-.2.7-.8.5-1.2s-.8-.7-1.2-.5l-3.3 1.5c-.5.2-.7.8-.5 1.2.1.4.4.6.8.6zm6.6-3c.1 0 .3 0 .4-.1l3.3-1.5c.5-.2.7-.8.5-1.2-.2-.5-.8-.7-1.2-.5l-3.3 1.5c-.5.2-.7.8-.5 1.2.1.4.5.6.8.6zm6.7-3c.1 0 .3 0 .4-.1l3.3-1.5c.5-.2.7-.8.5-1.2-.2-.5-.8-.7-1.2-.5l-3.3 1.5c-.5.2-.7.8-.5 1.2.1.4.4.6.8.6zm12.5-6.5c.2.3.5.6.9.6.1 0 .3 0 .4-.1l3.3-1.5c.5-.2.7-.8.5-1.2-.2-.5-.8-.7-1.2-.5l-3.3 1.5c-.6.2-.8.8-.6 1.2zm-6.7 3c.2.3.5.6.9.6.1 0 .3 0 .4-.1l3.3-1.5c.5-.2.7-.8.5-1.2-.2-.5-.8-.7-1.2-.5l-3.3 1.5c-.6.2-.8.7-.6 1.2zm-52.5 24.4c.1 0 .3 0 .4-.1l3.3-1.5c.5-.2.7-.8.5-1.2-.2-.5-.8-.7-1.2-.5l-3.3 1.5c-.5.2-.7.8-.5 1.2.1.4.5.6.8.6zm6.7-3c.1 0 .3 0 .4-.1l3.3-1.5c.5-.2.7-.8.5-1.2-.2-.5-.8-.7-1.2-.5l-3.3 1.5c-.5.2-.7.8-.5 1.2.1.4.4.6.8.6zm6.7-2.9c.1 0 .3 0 .4-.1l3.3-1.5c.5-.2.7-.8.5-1.2-.2-.5-.8-.7-1.2-.5l-3.3 1.5c-.5.2-.7.8-.5 1.2.1.3.4.6.8.6zm6.6-3c.1 0 .3 0 .4-.1l3.3-1.5c.5-.2.7-.8.5-1.2-.2-.5-.8-.7-1.2-.5l-3.3 1.5c-.5.2-.7.8-.5 1.2.1.4.5.6.8.6zm55.4-26.4-1.7-.8c-.5-.2-1 0-1.2.5-.2.4 0 .9.3 1.1-.4.3-.5.7-.3 1.1.2.3.5.6.9.6.1 0 .3 0 .4-.1l1.7-.8c.3-.2.6-.5.6-.9s-.3-.6-.7-.7zm-5-2.3-1.2-.5c.8-4.5 1.3-9.2 1.3-13.9 0-41.6-33.9-75.5-75.5-75.5-5.4 0-10.8.6-16 1.7l-16.2-7.2c-.2-.1-.5-.1-.8 0l-21.7 9.7h-.1-.1-.1s-.1 0-.1.1l-.1.1s0 .1-.1.1c0 0 0 .1-.1.1v19.3c-12.9 14.2-20.1 32.4-20.1 51.6 0 4.7.4 9.5 1.3 14-.2.3-.2.6-.1.9.2.3.5.6.9.6.1 0 .3 0 .4-.1l3.3-1.5c.5-.2.7-.8.5-1.2-.2-.5-.8-.7-1.3-.5l-2 .9c-.8-4.3-1.2-8.7-1.2-13.1 0-18 6.5-35.2 18.4-48.7v69.7c0 .4.2.7.6.9l21.7 9.7c.1 0 .2.1.3.1h.1c.1 0 .2 0 .3-.1h.1l9.6-4.3 20.5 9.2c.1 0 .2.1.3.1s.2 0 .3-.1l21.7-9.7c.1-.1.3-.2.4-.3l11.5 5.1h.1c.1 0 .2 0 .3.1h.1c.1 0 .2 0 .3-.1l21.7-9.7c.3-.2.6-.5.6-.9v-13.8c.3-.1.5-.2.7-.5.2-.5 0-1-.5-1.2l-.2-.1v-49.7-.2-.1c0-.1 0-.1-.1-.1 0 0 0-.1-.1-.1l-.1-.1s-.1 0-.1-.1h-.1-.1-.1l-21.5-9.8c-.2-.1-.5-.1-.8 0l-21.7 9.7h-.1l-.1.1-.1.1-.1.1v.1c0 .1-.1.1-.1.2v28.8l-11.3-5.1c-.2-.1-.5-.1-.8 0l-7.9 3.4v-53.1-.3c0-.1-.1-.2-.1-.2 0-.1-.1-.1-.1-.2 0 0-.1 0-.1-.1 0 0-.1 0-.1-.1h-.1l-2.5-1c4.3-.8 8.6-1.2 13-1.2 40.6 0 73.6 33 73.6 73.6 0 4.4-.4 8.8-1.2 13.1l-.4-.2c-.5-.2-1 0-1.2.5s0 1 .5 1.2l3.3 1.5c.1.1.3.1.4.1.4 0 .7-.2.9-.6s0-1-.5-1.2zm-108.9-18.7-.3.1c-.5.2-.7.8-.5 1.2.1.3.4.5.7.5v31.7l-19.8-8.9v-13.8c.1 0 .2 0 .3-.1l3.3-1.5c.5-.2.7-.8.5-1.2-.2-.5-.8-.7-1.2-.5l-2.9 1.3v-73.5l17.5 7.8 2.3 1v55.9zm.9-57.5-3.2-1.4-16.2-7.3 19.4-8.7 19.4 8.7zm29.9 96-19.8-8.9v-34.2l19.5 8.7.4.2v34.2zm21.7-9.1v.2l-19.8 8.9v-34.3l.4-.2 19.2-8.6.2.1zm34.4-20.5-1.3-.6c-.5-.2-1 0-1.2.5s0 1 .5 1.2l2 .9v13.9l-19.8 8.9v-31.7l1.1.5c.1.1.3.1.4.1.4 0 .7-.2.9-.6.2-.5 0-1-.5-1.2l-1.9-.8v-29.7l2.3-1 17.5-7.8zm-20.8-57.6 19.4 8.7-16.2 7.2-3.2 1.4-6-2.7-13.4-6zm-20.8 10.2 10.3 4.6 9.5 4.3v28.9c-.3 0-.7.2-.8.5-.2.5 0 1 .5 1.2l.3.1v32.4l-10.7-4.8v-32.3l.4.2c.1.1.3.1.4.1.4 0 .7-.2.9-.6.2-.5 0-1-.5-1.2l-1.2-.5v-.4-.2-.1c0-.1 0-.1-.1-.1 0 0 0-.1-.1-.1l-.1-.1s-.1 0-.1-.1h-.1-.1-.1l-8.5-3.8v-28zm-13.5 23.7 19.4 8.7-16.2 7.2-3.2 1.4-3.3-1.3-16.2-7.2zm-10.1-49.9v52.5l-12 5.4h-.1-.1-.1s-.1 0-.1.1l-.1.1s0 .1-.1.1c0 0 0 .1-.1.1v2.3l-2.8 1.2c-.5.2-.7.8-.5 1.2.2.3.5.6.9.6.1 0 .3 0 .4-.1l2-.9v32.4l-7.3 3.3v-32.4l2-.9c.5-.2.7-.8.5-1.2s-.8-.7-1.2-.5l-1.2.5v-55z"/><path d="m106.7 78.6 3.3 1.5c.1.1.3.1.4.1.4 0 .7-.2.9-.6.2-.5 0-1-.5-1.2l-3.3-1.5c-.5-.2-1 0-1.2.5-.3.4-.1 1 .4 1.2zm13.3 5.9 3.3 1.5c.1.1.3.1.4.1.4 0 .7-.2.9-.6.2-.5 0-1-.5-1.2l-3.3-1.5c-.5-.2-1 0-1.2.5-.3.5-.1 1 .4 1.2zm20 9 3.3 1.5c.1.1.3.1.4.1.4 0 .7-.2.9-.6.2-.5 0-1-.5-1.2l-3.3-1.5c-.5-.2-1 0-1.2.5-.3.4-.1 1 .4 1.2zm-13.3-6 3.3 1.5c.1.1.3.1.4.1.4 0 .7-.2.9-.6.2-.5 0-1-.5-1.2l-3.3-1.5c-.5-.2-1 0-1.2.5-.3.5-.1 1 .4 1.2zm20 9 3.3 1.5c.1.1.3.1.4.1.4 0 .7-.2.9-.6.2-.5 0-1-.5-1.2l-3.3-1.5c-.5-.2-1 0-1.2.5-.3.4-.1.9.4 1.2z"/></svg></svg>